<svg version="1.1" xmlns="http://www.w3.org/2000/svg" viewBox="0 0 356 442.3999786376953" width="356" height="442.3999786376953">
  <!-- svg-source:excalidraw -->
  
  <defs>
    <style class="style-fonts">
      @font-face {
        font-family: "Virgil";
        src: url("https://excalidraw.com/Virgil.woff2");
      }
      @font-face {
        font-family: "Cascadia";
        src: url("https://excalidraw.com/Cascadia.woff2");
      }
    </style>
    
  </defs>
  <rect x="0" y="0" width="356" height="442.3999786376953" fill="#f5faff"></rect><g stroke-linecap="round" transform="translate(10 10) rotate(0 168 211.19998931884766)"><path d="M32 0 M32 0 C137.33 0.49, 239.09 0.54, 304 0 M32 0 C134.35 1.18, 235.04 0.04, 304 0 M304 0 C324.73 1.61, 335.3 12.18, 336 32 M304 0 C324.98 0.49, 337.13 11.36, 336 32 M336 32 C336.31 138.69, 337.71 245.23, 336 390.4 M336 32 C335.85 106.18, 335.74 180.07, 336 390.4 M336 390.4 C337.8 412.05, 326.74 420.95, 304 422.4 M336 390.4 C335.4 410.86, 327.02 422.47, 304 422.4 M304 422.4 C225.21 423.07, 148.76 420.21, 32 422.4 M304 422.4 C213.89 421.91, 122.84 422.06, 32 422.4 M32 422.4 C10.42 421.79, 1.1 412.07, 0 390.4 M32 422.4 C12.19 423.44, 1.29 410.6, 0 390.4 M0 390.4 C-1.64 272.05, 0.69 151.73, 0 32 M0 390.4 C-1.69 267.89, -1.99 146.65, 0 32 M0 32 C-1.51 10.59, 11.37 1.62, 32 0 M0 32 C-1.5 11.56, 11.33 -1.91, 32 0" stroke="#1e1e1e" stroke-width="1" fill="none"></path></g><g stroke-linecap="round" transform="translate(66.79998779296875 56.39994812011719) rotate(0 110.80001831054688 26.800010681152344)"><path d="M13.4 0 M13.4 0 C82.48 -0.14, 153.29 -2.99, 208.2 0 M13.4 0 C71.99 -1.01, 130.29 -0.57, 208.2 0 M208.2 0 C215.28 -1.71, 220.23 3.34, 221.6 13.4 M208.2 0 C216.81 -0.87, 223.73 4.92, 221.6 13.4 M221.6 13.4 C221.31 23.18, 221.04 28.1, 221.6 40.2 M221.6 13.4 C221.55 21.34, 220.95 31.78, 221.6 40.2 M221.6 40.2 C219.77 50.45, 218.91 53.09, 208.2 53.6 M221.6 40.2 C222.08 50.23, 215.42 52.17, 208.2 53.6 M208.2 53.6 C154.1 54.36, 98 55.21, 13.4 53.6 M208.2 53.6 C134.55 53.82, 60.09 52.51, 13.4 53.6 M13.4 53.6 C4.6 53.49, 0.99 48.67, 0 40.2 M13.4 53.6 C5.86 55.24, 0.05 50.09, 0 40.2 M0 40.2 C-0.73 32.49, 0.35 27.63, 0 13.4 M0 40.2 C0.84 32.34, -0.24 24.52, 0 13.4 M0 13.4 C0.63 3.01, 3.05 -0.37, 13.4 0 M0 13.4 C-1.05 3.77, 5.61 -0.54, 13.4 0" stroke="#1e1e1e" stroke-width="1" fill="none"></path></g><g stroke-linecap="round" transform="translate(69.20001220703125 149.99998474121094) rotate(0 113.20001220703125 115.99998474121094)"><path d="M32 0 M32 0 C76.21 2.8, 117.51 -1.02, 194.4 0 M32 0 C75.62 0.56, 117.09 0.49, 194.4 0 M194.4 0 C213.87 0.33, 227.36 10.56, 226.4 32 M194.4 0 C213.77 0.98, 227.53 10.31, 226.4 32 M226.4 32 C224.3 93.84, 227.07 153.39, 226.4 200 M226.4 32 C224.44 85.52, 223.91 136.58, 226.4 200 M226.4 200 C228.2 220.82, 216.67 233.83, 194.4 232 M226.4 200 C228 219.79, 217.55 231.92, 194.4 232 M194.4 232 C146.58 231.31, 101.54 230.84, 32 232 M194.4 232 C151.23 230.94, 108.51 229.87, 32 232 M32 232 C12.32 231.36, 1.44 220.15, 0 200 M32 232 C11.2 230.95, 1.71 221.12, 0 200 M0 200 C-2.25 151.59, 0.3 104.82, 0 32 M0 200 C1.8 165.77, 2.17 130.5, 0 32 M0 32 C1.95 11.72, 10.17 1.96, 32 0 M0 32 C0.28 9.89, 8.5 0.74, 32 0" stroke="#1e1e1e" stroke-width="1" fill="none"></path></g><g transform="translate(110 74.79997253417969) rotate(0 56.449951171875 12.5)"><text x="0" y="0" font-family="Virgil, Segoe UI Emoji" font-size="20px" fill="#1e1e1e" text-anchor="start" style="white-space: pre;" direction="ltr" dominant-baseline="text-before-edge">Search City</text></g><g transform="translate(95.5999755859375 225.1999969482422) rotate(0 96.57992553710938 25)"><text x="0" y="0" font-family="Virgil, Segoe UI Emoji" font-size="20px" fill="#1e1e1e" text-anchor="start" style="white-space: pre;" direction="ltr" dominant-baseline="text-before-edge">Show City Weather </text><text x="0" y="25" font-family="Virgil, Segoe UI Emoji" font-size="20px" fill="#1e1e1e" text-anchor="start" style="white-space: pre;" direction="ltr" dominant-baseline="text-before-edge">    Details</text></g></svg>